<?xml version="1.0" encoding="UTF-8" standalone="no"?>

<svg
   xmlns:svg="http://www.w3.org/2000/svg"
   xmlns="http://www.w3.org/2000/svg"
   width="130mm"
   height="155mm"
   viewBox="0 0 130 155"
   version="1.1"
   id="svg2041">
  <g
     id="layer1"
     transform="translate(60.764381,-248.00001)">
    <path
       style="fill:#000000;fill-opacity:1;stroke:#000000;stroke-width:2;stroke-linecap:round;stroke-linejoin:round;stroke-miterlimit:4;stroke-dasharray:none;stroke-opacity:1"
       d="m 32.236048,280.99983 31.764381,-19.2856 -2.435069,11.37402 -31.348551,24.91154 z m -3.608918,-6.24948 32.580658,-17.87207 -11.068396,-3.5761 -37.245545,14.69986 z m -52.382973,6.24921 -31.764193,-19.28591 2.434958,11.37404 31.348308,24.91185 z m 3.608979,-6.24944 -32.580484,-17.87239 11.068431,-3.576 37.2454016,14.70022 z"
       id="path6346" />
    <path
       style="display:inline;fill:#000000;fill-opacity:1;stroke:#000000;stroke-width:2;stroke-linecap:round;stroke-linejoin:round;stroke-miterlimit:4;stroke-dasharray:none;stroke-opacity:1"
       d="M 4.2363025,316.00001 17.816935,305.82895 4.2363026,298.00001 m 0.00743,18 -13.5805311,-10.1712 13.5807104,-7.8288"
       id="path879" />
    <path
       style="display:inline;fill:#000000;fill-opacity:1;stroke:#000000;stroke-width:2;stroke-linecap:round;stroke-linejoin:round;stroke-miterlimit:4;stroke-dasharray:none;stroke-opacity:1"
       d="M 24.154848,281.50032 22.109914,298.34571 8.5663904,290.50034 M 24.154358,281.49947 8.5439255,274.8464 8.565112,290.49813 m -24.239757,-8.998 2.04477,16.84541 13.54360014,-7.84524 m -15.58788014,-9.00102 15.61049775,-6.65292 -0.02133923,15.65172"
       id="path881" />
    <path
       style="display:inline;fill:#000000;fill-opacity:1;stroke:#000000;stroke-width:2;stroke-linecap:round;stroke-linejoin:round;stroke-miterlimit:4;stroke-dasharray:none;stroke-opacity:1"
       d="m 8.2363644,323.00001 -1,75 7.9999996,-7 6.32051,-78 z m -7.99186465,-4e-5 0.99916845,75.00001 -7.999922,-7.00009 -6.3196452,-78.00007 z"
       id="path6326-5" />
  </g>
</svg>
